# xmcd
#
# Track frame offsets:
#	150
#	13623
#	30530
#	46752
#	63355
#	81128
#	97008
#	114844
#	131847
#	152560
#	172669
#	186142
#	203049
#	219271
#	235874
#	253647
#	269527
#	287363
#	304366
#	325079
#
# Disc length: 4600 seconds
#
# Revision: 0
# Processed by: cddbd v1.5.2PL0 Copyright (c) Steve Scherf et al.
# Submitted via: audiograbber 1.83.01
#
DISCID=0611f614
DTITLE=Top Hits Monthly Country 0701 - Thmc0701
DYEAR=2007
DGENRE=Country Karaoke
TTITLE0=George Strait - It Just Comes Natural (Vocals)
TTITLE1=Phil Vassar - The Woman In My Life (Vocals)
TTITLE2=Wreckers - My, Oh My  (Vocals)
TTITLE3=Trace Adkins - Ladies Love Country Boys (Vocals)
TTITLE4=Rodney Atkins - Watching You (Vocals)
TTITLE5=Little Big Town - Good As Gone (Vocals)
TTITLE6=Lindsey Haun - Broken (Vocals)
TTITLE7=Kellie Pickerred - High Heels (Vocals)
TTITLE8=Daryl Worrley - I Just Came Back From A War (Vocals)
TTITLE9=Faith Hil - Stealing Kisses (Vocals)
TTITLE10=George Strait - It Just Comes Natural
TTITLE11=Phil Vassar - The Woman In My Life
TTITLE12=Wreckers - My, Oh My 
TTITLE13=Trace Adkins - Ladies Love Country Boys
TTITLE14=Rodney Atkins - Watching You
TTITLE15=Little Big Town - Good As Gone
TTITLE16=Lindsey Haun - Broken
TTITLE17=Kellie Pickerred - High Heels
TTITLE18=Daryl Worrley - I Just Came Back From A War
TTITLE19=Faith Hil - Stealing Kisses
EXTD=
EXTT0=
EXTT1=
EXTT2=
EXTT3=
EXTT4=
EXTT5=
EXTT6=
EXTT7=
EXTT8=
EXTT9=
EXTT10=
EXTT11=
EXTT12=
EXTT13=
EXTT14=
EXTT15=
EXTT16=
EXTT17=
EXTT18=
EXTT19=
PLAYORDER=
